<svg width="591" height="477" xmlns="http://www.w3.org/2000/svg" xmlns:xlink="http://www.w3.org/1999/xlink" xml:space="preserve" overflow="hidden"><g transform="translate(-1902 -948)"><g><path d="M342.534 0 141.459 0 141.459 0.000180647 97.5436 0.000180647C43.6718 0.000180647 0 43.6957 0 97.5965L0 97.984 0 120.539 0 355.461 0 396.665 0 397.722C0 440.954 35.027 476 78.235 476L79.2917 476 174.021 476 507.708 476C551.5 476 587 440.48 587 396.665L587 120.539 587 97.5967C587 43.6957 543.328 0.000180647 489.456 0.000180647L342.534 0.000180647Z" fill="#EC4899" fill-rule="evenodd" fill-opacity="1" transform="matrix(-1 0 0 1 2493 949)"/><path d="M2003.63 949 2207 949 2207 991.423C2207 1034.82 2171.94 1070 2128.7 1070L1906 1070 1906 1046.97C1906 992.863 1949.71 949 2003.63 949Z" fill="#FFFFFF" fill-rule="evenodd" fill-opacity="0.85098"/><path d="M2319 949 2395.47 949C2449.33 949 2493 992.863 2493 1046.97L2493 1070 2397.23 1070C2354.02 1070 2319 1034.82 2319 991.423L2319 949Z" fill="#FFFFFF" fill-rule="evenodd" fill-opacity="0.85098"/><path d="M1987 1214C1987 1190.8 2005.8 1172 2029 1172L2370 1172C2393.2 1172 2412 1190.8 2412 1214 2412 1237.2 2393.2 1256 2370 1256L2029 1256C2005.8 1256 1987 1237.2 1987 1214Z" fill="#FFFFFF" fill-rule="evenodd" fill-opacity="1"/></g></g></svg>